<svg xmlns="http://www.w3.org/2000/svg" viewBox="0 0 100 100" width="50px" height="50px"><path fill="#f1bc19" d="M77 12A1 1 0 1 0 77 14A1 1 0 1 0 77 12Z"/><path fill="#e4e4f9" d="M50 13A37 37 0 1 0 50 87A37 37 0 1 0 50 13Z"/><path fill="#f1bc19" d="M83 11A4 4 0 1 0 83 19A4 4 0 1 0 83 11Z"/><path fill="#8889b9" d="M87 22A2 2 0 1 0 87 26A2 2 0 1 0 87 22Z"/><path fill="#fbcd59" d="M81 74A2 2 0 1 0 81 78 2 2 0 1 0 81 74zM15 59A4 4 0 1 0 15 67 4 4 0 1 0 15 59z"/><path fill="#8889b9" d="M25 85A2 2 0 1 0 25 89A2 2 0 1 0 25 85Z"/><path fill="#fff" d="M79.5 32A1.5 1.5 0 1 0 79.5 35A1.5 1.5 0 1 0 79.5 32Z"/><g><path fill="#f7d4d5" d="M73.994,50.796c0-1.928-0.843-3.655-2.177-4.845c0.704-1.039,1.116-2.292,1.116-3.641 c0-3.18-2.287-5.819-5.305-6.38c-0.008-3.523-2.819-6.387-6.322-6.48c-0.058-0.001-0.116-0.002-0.175-0.002 c-0.39,0-0.769,0.04-1.14,0.106c-0.578-2.007-2.383-3.495-4.562-3.552C55.386,26.001,55.342,26,55.298,26 c-2.115,0-3.901,1.346-4.59,3.221c-0.359,0.626-0.581,1.342-0.581,2.116v37.724c0,1.725,0.945,3.215,2.336,4.025 C53.265,73.657,54.239,74,55.298,74c1.682,0,3.164-0.848,4.048-2.138c0.11,0.005,0.217,0.017,0.328,0.017 c4.394,0,7.956-3.562,7.956-7.956c0-0.566-0.062-1.117-0.174-1.649c0.188,0.028,0.376,0.057,0.572,0.057 c2.124,0,3.845-1.722,3.845-3.845c0-0.86-0.293-1.646-0.771-2.286C72.846,55.035,73.994,53.05,73.994,50.796z"/><path fill="#472b29" d="M55.299,74.7c-1.161,0-2.282-0.361-3.241-1.044c-1.603-0.929-2.631-2.703-2.631-4.596V31.337 c0-0.837,0.217-1.648,0.645-2.413c0.824-2.17,2.917-3.624,5.228-3.624l0.146,0.002c2.237,0.059,4.185,1.432,5.02,3.479 c0.228-0.022,0.449-0.034,0.668-0.034l0.184,0.002c3.738,0.1,6.705,2.96,6.99,6.617c3.118,0.834,5.327,3.67,5.327,6.943 c0,1.247-0.318,2.456-0.925,3.53c1.268,1.334,1.985,3.109,1.985,4.956c0,2.179-0.98,4.218-2.653,5.58 c0.35,0.653,0.532,1.372,0.532,2.11c0,2.421-1.902,4.405-4.291,4.538c0.031,0.3,0.048,0.601,0.048,0.898 c0,4.769-3.877,8.649-8.644,8.656C58.625,73.914,57.013,74.7,55.299,74.7z M55.299,26.7c-1.745,0-3.326,1.11-3.934,2.762 l-0.05,0.106c-0.324,0.565-0.488,1.161-0.488,1.769v37.724c0,1.417,0.743,2.695,1.988,3.421c2.011,1.419,4.673,0.852,5.953-1.015 l0.218-0.317l0.688,0.029c4.001,0,7.256-3.255,7.256-7.256c0-0.496-0.054-1.003-0.159-1.504l-0.208-0.981l0.993,0.145 c0.179,0.025,0.322,0.049,0.472,0.049c1.734,0,3.146-1.41,3.146-3.145c0-0.666-0.219-1.313-0.632-1.868l-0.439-0.591l0.611-0.409 c1.616-1.081,2.581-2.884,2.581-4.822c0-1.646-0.708-3.222-1.942-4.323l-0.458-0.408l0.345-0.507 c0.651-0.96,0.995-2.083,0.995-3.248c0-2.788-1.99-5.183-4.732-5.691l-0.57-0.106l-0.002-0.58 c-0.007-3.159-2.484-5.699-5.64-5.782l-0.156-0.002c-0.32,0-0.653,0.031-1.02,0.096l-0.619,0.109l-0.175-0.605 c-0.511-1.773-2.081-2.998-3.908-3.045L55.299,26.7z"/><path fill="#472b29" d="M67.631 65.285c-.02 0-.039-.001-.06-.002-.385-.032-.671-.371-.639-.756.019-.234.415-5.785-4.424-8.55-.335-.191-.452-.619-.26-.955.19-.335.615-.453.955-.26 5.627 3.215 5.146 9.612 5.123 9.883C68.296 65.011 67.99 65.285 67.631 65.285zM73.825 49.805c-.299 0-.575-.192-.669-.492-.051-.162-1.285-3.971-5.246-4.512-.383-.052-.651-.405-.599-.788.052-.382.399-.659.788-.599 4.861.663 6.334 5.289 6.395 5.486.113.368-.094.759-.462.873C73.963 49.795 73.894 49.805 73.825 49.805zM71.852 59.062c-.383 0-.695-.308-.7-.69l0 0c-.001-.074-.052-1.814-1.614-2.522-.353-.16-.508-.574-.349-.927.159-.352.575-.508.927-.349 2.388 1.083 2.436 3.673 2.437 3.782.003.387-.309.703-.694.706C71.855 59.062 71.854 59.062 71.852 59.062zM57.017 31.689c-.212 0-.421-.096-.559-.276-.233-.308-.174-.747.134-.981 3.906-2.971 8.22-.74 8.401-.643.341.181.471.603.29.944-.179.342-.602.476-.944.293-.15-.079-3.717-1.899-6.899.521C57.313 31.643 57.164 31.689 57.017 31.689z"/><path fill="#472b29" d="M60.191 59.242c-.157 0-.312-.074-.409-.212-.158-.226-.104-.537.12-.696.153-.109 3.729-2.723 1.42-7.741-.115-.251-.006-.548.245-.663.249-.115.548-.007.663.245 2.666 5.793-1.709 8.945-1.753 8.977C60.39 59.213 60.29 59.242 60.191 59.242zM59.691 68.078c-1.879 0-3.439-.832-4.343-2.339-.911-1.519-.928-3.437-.042-4.771.154-.231.466-.29.693-.141.23.153.293.463.141.693-.678 1.021-.651 2.51.065 3.705.798 1.33 2.271 2.002 4.025 1.826.277-.02.519.174.546.45.026.275-.176.52-.45.546C60.111 68.068 59.899 68.078 59.691 68.078z"/><path fill="#84a7d7" d="M55.943,44.12c0.528,0.595,1.129,1.096,1.756,1.487"/><path fill="#472b29" d="M57.698 46.107c-.091 0-.183-.024-.266-.076-.689-.432-1.316-.963-1.864-1.579-.184-.206-.164-.522.042-.706.204-.183.522-.166.706.042.484.545 1.038 1.015 1.647 1.396.233.146.305.455.158.689C58.027 46.024 57.864 46.107 57.698 46.107zM54.603 42.379c-.204 0-.396-.126-.47-.329-.617-1.695-1.054-3.828.384-6.788.121-.248.42-.353.669-.231.248.121.352.42.231.669-1.275 2.624-.89 4.51-.345 6.009.095.26-.039.547-.299.641C54.717 42.369 54.659 42.379 54.603 42.379zM50.305 60.511c-.025 0-.051-.002-.076-.006-.273-.041-.461-.296-.419-.569.442-2.911 1.769-5.301 3.734-6.728.222-.161.536-.114.698.11.162.224.113.536-.11.698-1.748 1.269-2.932 3.424-3.334 6.069C50.761 60.333 50.547 60.511 50.305 60.511z"/><path fill="#84a7d7" d="M57.936,52.162c-0.703,0.054-1.369,0.197-1.991,0.421"/><path fill="#472b29" d="M55.944 53.083c-.205 0-.397-.127-.471-.331-.093-.26.042-.546.302-.64.674-.241 1.388-.393 2.122-.449.248-.018.515.184.537.461.021.275-.186.516-.461.537-.646.049-1.271.181-1.86.393C56.058 53.073 56 53.083 55.944 53.083zM62.031 42.318c-.074 0-.148-.017-.22-.051-.248-.121-.351-.42-.229-.669 1.142-2.339.34-4.862-2.199-6.921-.215-.174-.248-.489-.074-.703.174-.216.491-.247.703-.074 2.89 2.343 3.813 5.385 2.469 8.138C62.394 42.215 62.216 42.318 62.031 42.318z"/><path fill="#84a7d7" d="M68.231,50.517c0.554,0.184,1.161,0.308,1.811,0.368"/><path fill="#472b29" d="M70.042,51.386c-0.016,0-0.031-0.001-0.048-0.002c-0.683-0.064-1.329-0.195-1.921-0.392 c-0.262-0.087-0.404-0.369-0.317-0.632c0.086-0.262,0.365-0.405,0.632-0.317c0.521,0.172,1.092,0.288,1.7,0.345 c0.274,0.026,0.477,0.27,0.451,0.545C70.515,51.191,70.297,51.386,70.042,51.386z"/><path fill="#84a7d7" d="M64.529,46.429c0.185,1.368,0.886,2.438,1.956,3.169"/><path fill="#472b29" d="M66.484,50.098c-0.098,0-0.196-0.028-0.282-0.087c-1.222-0.835-1.972-2.051-2.169-3.516 c-0.037-0.273,0.154-0.525,0.429-0.562c0.265-0.048,0.525,0.154,0.562,0.429c0.161,1.192,0.748,2.143,1.743,2.822 c0.228,0.156,0.286,0.467,0.131,0.695C66.801,50.021,66.644,50.098,66.484,50.098z"/><path fill="#f7d4d5" d="M26.26,50.796c0-1.928,0.843-3.655,2.177-4.845c-0.704-1.039-1.116-2.292-1.116-3.641 c0-3.18,2.287-5.819,5.305-6.38c0.008-3.523,2.819-6.387,6.322-6.48c0.058-0.001,0.116-0.002,0.175-0.002 c0.39,0,0.769,0.04,1.14,0.106c0.578-2.007,2.383-3.495,4.562-3.552C44.868,26.001,44.912,26,44.956,26 c2.115,0,3.901,1.346,4.59,3.221c0.359,0.626,0.581,1.342,0.581,2.116v37.724c0,1.725-0.945,3.215-2.336,4.025 C46.989,73.657,46.015,74,44.956,74c-1.682,0-3.164-0.848-4.048-2.138c-0.11,0.005-0.217,0.017-0.328,0.017 c-4.394,0-7.956-3.562-7.956-7.956c0-0.566,0.062-1.117,0.174-1.649c-0.188,0.028-0.376,0.057-0.572,0.057 c-2.124,0-3.845-1.722-3.845-3.845c0-0.86,0.293-1.646,0.771-2.286C27.409,55.035,26.26,53.05,26.26,50.796z"/><path fill="#472b29" d="M44.956,74.7c-1.715,0-3.327-0.786-4.389-2.121c-4.767-0.007-8.644-3.888-8.644-8.656 c0-0.298,0.017-0.599,0.048-0.898c-2.389-0.133-4.291-2.117-4.291-4.538c0-0.739,0.183-1.457,0.532-2.11 c-1.673-1.362-2.653-3.401-2.653-5.58c0-1.847,0.718-3.622,1.985-4.956c-0.606-1.075-0.925-2.284-0.925-3.53 c0-3.273,2.209-6.109,5.327-6.943c0.286-3.657,3.253-6.518,6.981-6.617l0.192-0.002c0.219,0,0.44,0.012,0.669,0.034 c0.835-2.047,2.782-3.421,5.016-3.479l0.15-0.002c2.31,0,4.402,1.454,5.227,3.624c0.428,0.765,0.645,1.576,0.645,2.413v37.724 c0,1.893-1.028,3.667-2.684,4.63C47.237,74.339,46.116,74.7,44.956,74.7z M41.268,71.149l0.218,0.317 c0.787,1.147,2.085,1.833,3.471,1.833c0.868,0,1.708-0.271,2.43-0.784c1.298-0.76,2.041-2.038,2.041-3.455V31.337 c0-0.607-0.164-1.203-0.488-1.769l-0.05-0.106c-0.607-1.651-2.188-2.762-3.933-2.762l-0.116,0.002 c-1.823,0.047-3.394,1.271-3.905,3.046l-0.175,0.604l-0.619-0.109c-0.366-0.064-0.699-0.096-1.02-0.096l-0.162,0.002 c-3.148,0.083-5.626,2.623-5.634,5.782l-0.002,0.58l-0.57,0.106c-2.742,0.509-4.732,2.903-4.732,5.691 c0,1.163,0.344,2.287,0.995,3.248l0.344,0.507l-0.457,0.408c-1.234,1.102-1.942,2.678-1.942,4.323 c0,1.938,0.965,3.741,2.581,4.822l0.613,0.409l-0.44,0.591c-0.414,0.556-0.633,1.201-0.633,1.868c0,1.734,1.411,3.145,3.146,3.145 c0.149,0,0.292-0.023,0.435-0.044l0.994-0.145l-0.172,0.977c-0.105,0.501-0.159,1.008-0.159,1.504 c0,4.001,3.255,7.256,7.256,7.256c0.049,0,0.098-0.004,0.146-0.007L41.268,71.149z"/><path fill="#472b29" d="M32.623 65.286c-.359 0-.665-.275-.696-.641-.023-.271-.504-6.668 5.123-9.883.34-.192.764-.075.955.26.192.336.075.764-.26.955-4.859 2.776-4.429 8.491-4.424 8.549.033.385-.252.724-.638.757C32.663 65.285 32.644 65.286 32.623 65.286zM26.429 49.806c-.067 0-.137-.01-.205-.031-.37-.113-.577-.505-.464-.874.061-.197 1.533-4.823 6.396-5.486.391-.06.735.217.788.599.053.383-.216.736-.599.788-3.985.544-5.234 4.471-5.247 4.51C27.006 49.612 26.729 49.806 26.429 49.806zM28.402 59.06c-.003 0-.006 0-.01 0-.385-.006-.693-.318-.69-.704.001-.109.049-2.699 2.437-3.782.352-.159.767-.005.927.349.159.353.004.767-.349.927-1.563.708-1.613 2.448-1.614 2.522C29.095 58.753 28.783 59.06 28.402 59.06zM43.237 31.689c-.147 0-.296-.047-.423-.143-3.199-2.432-6.861-.54-6.897-.521-.344.181-.767.051-.946-.29-.182-.342-.052-.766.29-.946.182-.098 4.494-2.326 8.401.643.308.234.367.674.134.981C43.658 31.594 43.449 31.689 43.237 31.689z"/><path fill="#472b29" d="M40.063 59.242c-.1 0-.199-.029-.287-.091-.044-.031-4.419-3.184-1.753-8.977.115-.252.415-.36.663-.245.251.115.36.412.245.663-2.321 5.043 1.381 7.714 1.419 7.74.226.158.281.47.122.696C40.376 59.168 40.221 59.242 40.063 59.242zM40.563 68.078c-.208 0-.42-.01-.636-.03-.274-.026-.477-.271-.45-.546.027-.276.28-.471.546-.45 1.761.164 3.228-.497 4.024-1.826.717-1.195.743-2.685.065-3.705-.152-.23-.09-.54.141-.693.228-.15.538-.092.693.141.886 1.335.869 3.253-.042 4.772C44.002 67.246 42.441 68.078 40.563 68.078z"/><path fill="#84a7d7" d="M44.312,44.12c-0.528,0.595-1.129,1.096-1.756,1.487"/><path fill="#472b29" d="M42.556,46.107c-0.166,0-0.329-0.083-0.424-0.235c-0.146-0.234-0.075-0.542,0.159-0.688 c0.609-0.381,1.163-0.851,1.646-1.396c0.183-0.208,0.498-0.228,0.706-0.042c0.206,0.184,0.226,0.499,0.042,0.706 c-0.547,0.616-1.174,1.147-1.865,1.579C42.738,46.083,42.646,46.107,42.556,46.107z"/><g><path fill="#472b29" d="M45.652,42.379c-0.057,0-0.114-0.01-0.171-0.03c-0.26-0.094-0.394-0.381-0.299-0.641 c0.544-1.499,0.929-3.386-0.346-6.009c-0.12-0.249-0.017-0.548,0.231-0.669c0.249-0.12,0.548-0.017,0.669,0.231 c1.437,2.959,1.001,5.092,0.385,6.788C46.049,42.253,45.856,42.379,45.652,42.379z"/></g><g><path fill="#472b29" d="M49.949,60.511c-0.242,0-0.456-0.178-0.493-0.425c-0.402-2.645-1.586-4.8-3.333-6.069 c-0.224-0.162-0.272-0.475-0.11-0.698c0.162-0.225,0.476-0.271,0.698-0.11c1.965,1.427,3.291,3.816,3.733,6.728 c0.042,0.273-0.146,0.528-0.419,0.569C50,60.509,49.975,60.511,49.949,60.511z"/></g><g><path fill="#84a7d7" d="M42.318,52.162c0.703,0.054,1.369,0.197,1.991,0.421"/><path fill="#472b29" d="M44.31,53.083c-0.057,0-0.113-0.01-0.169-0.029c-0.588-0.212-1.214-0.344-1.86-0.393 c-0.275-0.021-0.481-0.262-0.461-0.537c0.021-0.276,0.289-0.48,0.537-0.461c0.736,0.057,1.45,0.208,2.122,0.449 c0.26,0.094,0.395,0.38,0.302,0.64C44.707,52.956,44.515,53.083,44.31,53.083z"/></g><g><path fill="#472b29" d="M38.223,42.318c-0.185,0-0.362-0.104-0.449-0.28c-1.344-2.754-0.421-5.795,2.47-8.138 c0.211-0.174,0.528-0.142,0.703,0.074c0.174,0.214,0.141,0.529-0.074,0.703c-2.54,2.059-3.342,4.581-2.2,6.921 c0.121,0.249,0.019,0.548-0.229,0.669C38.371,42.302,38.297,42.318,38.223,42.318z"/></g><g><path fill="#84a7d7" d="M32.023,50.517c-0.554,0.184-1.161,0.308-1.811,0.368"/><path fill="#472b29" d="M30.212,51.386c-0.255,0-0.473-0.194-0.497-0.453c-0.025-0.275,0.177-0.52,0.451-0.545 c0.607-0.057,1.18-0.173,1.7-0.345c0.262-0.088,0.545,0.056,0.632,0.317c0.087,0.263-0.056,0.545-0.317,0.632 c-0.593,0.196-1.239,0.328-1.921,0.392C30.243,51.385,30.228,51.386,30.212,51.386z"/></g><g><path fill="#84a7d7" d="M35.726,46.429c-0.185,1.368-0.886,2.438-1.956,3.169"/><path fill="#472b29" d="M33.77,50.098c-0.159,0-0.316-0.076-0.413-0.218c-0.155-0.229-0.097-0.539,0.131-0.695 c0.995-0.68,1.582-1.63,1.743-2.822c0.036-0.274,0.289-0.475,0.562-0.429c0.274,0.036,0.466,0.288,0.429,0.562 c-0.197,1.465-0.947,2.681-2.169,3.516C33.966,50.069,33.867,50.098,33.77,50.098z"/></g></g></svg>