<svg xmlns="http://www.w3.org/2000/svg" viewBox="0 0 100 100" width="100px" height="100px"><path fill="#f4cccb" d="M41.5 90c-2.563 0-4.909-1.279-6.299-3.428-.164-.37-.555-.615-.971-.593C33.989 85.993 33.745 86 33.5 86 26.607 86 21 80.393 21 73.5c0-.792.074-1.584.221-2.355.828-4.345 3.938-7.961 8.117-9.436.067-.024.117-.069.176-.105.807 1.264 1.897 2.351 3.234 3.124.165.096.271.155.442.241.072.036.148.053.223.053.184 0 .36-.101.448-.276.124-.247.023-.547-.224-.671-.149-.075-.243-.126-.388-.211C30.628 62.346 29 59.525 29 56.5c0-1.887.605-3.673 1.75-5.166l.144-.186c.18-.209.157-.525-.053-.705-.209-.18-.524-.157-.705.053-.091.106-.1.12-.18.23C28.676 52.395 28 54.391 28 56.5c0 1.159.228 2.285.627 3.341-4.573 1.632-8.032 5.478-9.196 10.156C16.43 69.959 14 67.509 14 64.5c0-1.401.528-2.737 1.485-3.76C16.537 59.618 17.963 59 19.5 59c.552 0 1-.448 1-1s-.448-1-1-1c-1.8 0-3.547.658-4.902 1.825C11.793 57.241 10 54.251 10 51c0-2.967 1.462-5.743 3.912-7.425C15.413 42.544 17.172 42 19 42c.552 0 1-.448 1-1s-.448-1-1-1c-1.917 0-3.772.494-5.421 1.43C12.558 39.997 12 38.276 12 36.5c0-4.687 3.813-8.5 8.5-8.5l.315-.006c.137-.005.266-.01.418.003.313.029.627-.093.839-.331.211-.237.297-.561.231-.872l-.039-.18C22.089 25.928 22 25.216 22 24.5c0-4.687 3.813-8.5 8.5-8.5 2.375 0 4.577.955 6.202 2.688.378.403 1.011.423 1.414.045.403-.378.423-1.011.045-1.414-1.027-1.095-2.275-1.941-3.64-2.508C35.63 11.921 38.36 10 41.5 10c4.136 0 7.5 3.364 7.5 7.5v44.733c-1.034-2.647-2.831-4.976-5.229-6.644-.227-.158-.54-.102-.696.125-.158.227-.102.539.125.696 3.632 2.526 5.8 6.672 5.8 11.09v15C49 86.636 45.636 90 41.5 90zM85.401 58.826C84.047 57.658 82.3 57 80.5 57c-.552 0-1 .448-1 1s.448 1 1 1c1.537 0 2.963.618 4.014 1.74C85.472 61.763 86 63.099 86 64.5c0 3.009-2.43 5.459-5.431 5.497-1.164-4.678-4.623-8.524-9.196-10.156C71.772 58.785 72 57.659 72 56.5c0-2.109-.676-4.105-2.012-5.85-.023-.034-.032-.048-.123-.154-.18-.209-.466-.196-.675-.016-.209.18-.203.532-.022.742l.083.113C70.395 52.827 71 54.613 71 56.5c0 3.025-1.628 5.846-4.251 7.363-.144.084-.237.136-.387.21-.247.124-.347.424-.224.671.088.175.264.276.448.276.075 0 .151-.017.223-.053.171-.085.278-.145.441-.24 1.337-.773 2.428-1.86 3.235-3.124.058.036.109.081.176.105 4.179 1.475 7.289 5.091 8.117 9.436C78.926 71.916 79 72.708 79 73.5 79 80.393 73.393 86 66.5 86c-.245 0-.489-.007-.73-.021-.388-.024-.757.205-.937.541C63.447 88.7 61.083 90 58.5 90c-4.136 0-7.5-3.364-7.5-7.5v-15c0-4.418 2.168-8.564 5.8-11.09.227-.158.283-.47.125-.696-.158-.227-.47-.282-.696-.125-2.398 1.668-4.195 3.997-5.229 6.644V17.5c0-4.136 3.364-7.5 7.5-7.5 3.14 0 5.87 1.921 6.979 4.812-1.365.567-2.614 1.413-3.64 2.508-.378.403-.357 1.036.045 1.414.402.378 1.035.358 1.414-.045C64.923 16.955 67.125 16 69.5 16c4.687 0 8.5 3.813 8.5 8.5 0 .716-.089 1.428-.275 2.157l-.029.139c-.065.311.021.634.231.872.211.237.519.36.839.331.152-.014.28-.009.418-.003L79.5 28c4.687 0 8.5 3.813 8.5 8.5 0 1.776-.558 3.497-1.579 4.93C84.772 40.494 82.917 40 81 40c-.552 0-1 .448-1 1s.448 1 1 1c1.828 0 3.587.544 5.088 1.575C88.538 45.257 90 48.033 90 51 90 54.251 88.207 57.241 85.401 58.826z"/><path fill="#1f212b" d="M40.078 68.577c-.233.147-.303.457-.156.69C40.627 70.383 41 71.674 41 73c0 3.86-3.14 7-7 7-.276 0-.5.224-.5.5S33.724 81 34 81c4.411 0 8-3.589 8-8 0-1.516-.426-2.991-1.232-4.268C40.621 68.5 40.312 68.43 40.078 68.577zM34.46 23.012c-.107-.254-.402-.373-.655-.266C30.279 24.235 28 27.671 28 31.5c0 1.878.547 3.694 1.583 5.253.096.145.255.223.417.223.095 0 .191-.027.276-.083.23-.153.292-.463.14-.693C29.49 34.806 29 33.181 29 31.5c0-3.426 2.039-6.5 5.194-7.833C34.449 23.559 34.568 23.266 34.46 23.012zM35.5 54c1.486 0 2.946.24 4.339.712.053.018.107.026.161.026.208 0 .403-.131.474-.339.088-.262-.051-.545-.313-.634C38.664 53.257 37.096 53 35.5 53c-.276 0-.5.224-.5.5S35.224 54 35.5 54zM37 42.668c.077 0 .156-.018.229-.056 1.141-.589 2.182-1.349 3.094-2.258.195-.195.196-.511.001-.707-.195-.196-.511-.196-.707-.001-.839.836-1.797 1.536-2.847 2.078-.245.127-.341.429-.215.674C36.645 42.569 36.819 42.668 37 42.668zM44 31.5c0-2.413-.688-4.754-1.991-6.771-.15-.232-.46-.299-.691-.149-.232.15-.299.459-.149.691C42.367 27.126 43 29.28 43 31.5c0 1.492-.281 2.943-.835 4.313-.104.256.02.547.276.651.062.025.125.037.188.037.198 0 .385-.118.463-.313C43.694 34.698 44 33.121 44 31.5zM18.883 50.777c-.919.222-1.898.276-2.824.168-.275-.035-.523.164-.555.438s.164.523.438.555C16.289 51.979 16.642 52 17 52c.716 0 1.428-.084 2.117-.251.269-.064.434-.335.369-.603C19.421 50.877 19.148 50.711 18.883 50.777zM25.5 43.503c-.269-.032-.523.164-.555.438-.208 1.778-1.025 3.456-2.298 4.725-.195.195-.196.511-.001.707.098.098.226.147.354.147.127 0 .255-.048.353-.146 1.433-1.427 2.351-3.315 2.585-5.316C25.971 43.784 25.774 43.536 25.5 43.503z"/><path fill="#1f212b" d="M92,51c0-3.271-1.463-6.34-3.943-8.421C89.314,40.81,90,38.689,90,36.5 c0-5.658-4.499-10.286-10.108-10.493C79.964,25.509,80,25.005,80,24.5C80,18.71,75.29,14,69.5,14c-0.706,0-1.406,0.075-2.09,0.214 C66.038,10.478,62.525,8,58.5,8c-3.723,0-6.943,2.157-8.5,5.283C48.443,10.157,45.223,8,41.5,8c-4.025,0-7.538,2.478-8.91,6.214 C31.906,14.075,31.206,14,30.5,14C24.71,14,20,18.71,20,24.5c0,0.508,0.037,1.015,0.107,1.507C14.499,26.214,10,30.842,10,36.5 c0,2.19,0.686,4.311,1.944,6.079C9.463,44.66,8,47.729,8,51c0,3.831,2.027,7.383,5.246,9.368C12.44,61.587,12,63.015,12,64.5 c0,3.996,3.143,7.262,7.085,7.479C19.033,72.484,19,72.992,19,73.5C19,81.495,25.505,88,33.5,88c0.084,0,0.167-0.001,0.251-0.002 C35.534,90.514,38.391,92,41.5,92c3.723,0,6.943-2.157,8.5-5.283C51.557,89.843,54.777,92,58.5,92 c3.109,0,5.966-1.486,7.749-4.002C66.333,87.999,66.416,88,66.5,88C74.495,88,81,81.495,81,73.5c0-0.508-0.033-1.016-0.085-1.521 C84.857,71.762,88,68.496,88,64.5c0-1.485-0.44-2.913-1.247-4.132C89.973,58.383,92,54.831,92,51z M41.5,90 c-2.563,0-4.909-1.279-6.299-3.428c-0.164-0.37-0.555-0.615-0.971-0.593C33.989,85.993,33.745,86,33.5,86 C26.607,86,21,80.393,21,73.5c0-0.792,0.074-1.584,0.221-2.355c0.828-4.345,3.938-7.961,8.117-9.436 c0.067-0.024,0.117-0.069,0.176-0.105c0.807,1.264,1.897,2.351,3.234,3.124c0.165,0.096,0.271,0.155,0.442,0.241 c0.072,0.036,0.148,0.053,0.223,0.053c0.184,0,0.36-0.101,0.448-0.276c0.124-0.247,0.023-0.547-0.224-0.671 c-0.149-0.075-0.243-0.126-0.388-0.211C30.628,62.346,29,59.525,29,56.5c0-1.887,0.605-3.673,1.75-5.166l0.144-0.186 c0.18-0.209,0.157-0.525-0.053-0.705c-0.209-0.18-0.524-0.157-0.705,0.053c-0.091,0.106-0.1,0.12-0.18,0.23 C28.676,52.395,28,54.391,28,56.5c0,1.159,0.228,2.285,0.627,3.341c-4.573,1.632-8.032,5.478-9.196,10.156 C16.43,69.959,14,67.509,14,64.5c0-1.401,0.528-2.737,1.485-3.76C16.537,59.618,17.963,59,19.5,59c0.552,0,1-0.448,1-1 s-0.448-1-1-1c-1.8,0-3.547,0.658-4.902,1.825C11.793,57.241,10,54.251,10,51c0-2.967,1.462-5.743,3.912-7.425 C15.413,42.544,17.172,42,19,42c0.552,0,1-0.448,1-1s-0.448-1-1-1c-1.917,0-3.772,0.494-5.421,1.43 C12.558,39.997,12,38.276,12,36.5c0-4.687,3.813-8.5,8.5-8.5l0.315-0.006c0.137-0.005,0.266-0.01,0.418,0.003 c0.313,0.029,0.627-0.093,0.839-0.331c0.211-0.237,0.297-0.561,0.231-0.872l-0.039-0.18C22.089,25.928,22,25.216,22,24.5 c0-4.687,3.813-8.5,8.5-8.5c2.375,0,4.577,0.955,6.202,2.688c0.378,0.403,1.011,0.423,1.414,0.045 c0.403-0.378,0.423-1.011,0.045-1.414c-1.027-1.095-2.275-1.941-3.64-2.508C35.63,11.921,38.36,10,41.5,10 c4.136,0,7.5,3.364,7.5,7.5v44.733c-1.034-2.647-2.831-4.976-5.229-6.644c-0.227-0.158-0.54-0.102-0.696,0.125 c-0.158,0.227-0.102,0.539,0.125,0.696c3.632,2.526,5.8,6.672,5.8,11.09v15C49,86.636,45.636,90,41.5,90z M85.401,58.826 C84.047,57.658,82.3,57,80.5,57c-0.552,0-1,0.448-1,1s0.448,1,1,1c1.537,0,2.963,0.618,4.014,1.74 C85.472,61.763,86,63.099,86,64.5c0,3.009-2.43,5.459-5.431,5.497c-1.164-4.678-4.623-8.524-9.196-10.156 C71.772,58.785,72,57.659,72,56.5c0-2.109-0.676-4.105-2.012-5.85c-0.023-0.034-0.032-0.048-0.123-0.154 c-0.18-0.209-0.466-0.196-0.675-0.016c-0.209,0.18-0.203,0.532-0.022,0.742l0.083,0.113C70.395,52.827,71,54.613,71,56.5 c0,3.025-1.628,5.846-4.251,7.363c-0.144,0.084-0.237,0.136-0.387,0.21c-0.247,0.124-0.347,0.424-0.224,0.671 c0.088,0.175,0.264,0.276,0.448,0.276c0.075,0,0.151-0.017,0.223-0.053c0.171-0.085,0.278-0.145,0.441-0.24 c1.337-0.773,2.428-1.86,3.235-3.124c0.058,0.036,0.109,0.081,0.176,0.105c4.179,1.475,7.289,5.091,8.117,9.436 C78.926,71.916,79,72.708,79,73.5C79,80.393,73.393,86,66.5,86c-0.245,0-0.489-0.007-0.73-0.021 c-0.388-0.024-0.757,0.205-0.937,0.541C63.447,88.7,61.083,90,58.5,90c-4.136,0-7.5-3.364-7.5-7.5v-15 c0-4.418,2.168-8.564,5.8-11.09c0.227-0.158,0.283-0.47,0.125-0.696c-0.158-0.227-0.47-0.282-0.696-0.125 c-2.398,1.668-4.195,3.997-5.229,6.644V17.5c0-4.136,3.364-7.5,7.5-7.5c3.14,0,5.87,1.921,6.979,4.812 c-1.365,0.567-2.614,1.413-3.64,2.508c-0.378,0.403-0.357,1.036,0.045,1.414c0.402,0.378,1.035,0.358,1.414-0.045 C64.923,16.955,67.125,16,69.5,16c4.687,0,8.5,3.813,8.5,8.5c0,0.716-0.089,1.428-0.275,2.157l-0.029,0.139 c-0.065,0.311,0.021,0.634,0.231,0.872c0.211,0.237,0.519,0.36,0.839,0.331c0.152-0.014,0.28-0.009,0.418-0.003L79.5,28 c4.687,0,8.5,3.813,8.5,8.5c0,1.776-0.558,3.497-1.579,4.93C84.772,40.494,82.917,40,81,40c-0.552,0-1,0.448-1,1s0.448,1,1,1 c1.828,0,3.587,0.544,5.088,1.575C88.538,45.257,90,48.033,90,51C90,54.251,88.207,57.241,85.401,58.826z"/><path fill="#1f212b" d="M59 73c0-1.326.373-2.617 1.078-3.733.147-.233.078-.542-.156-.69-.233-.147-.542-.077-.69.156C58.426 70.009 58 71.484 58 73c0 4.411 3.589 8 8 8 .276 0 .5-.224.5-.5S66.276 80 66 80C62.14 80 59 76.86 59 73zM66.194 22.746c-.253-.107-.547.012-.655.266s.012.547.266.655C68.961 25 71 28.074 71 31.5c0 1.681-.49 3.306-1.416 4.699-.153.23-.09.541.14.693.085.057.181.083.276.083.162 0 .321-.079.417-.223C71.453 35.194 72 33.378 72 31.5 72 27.671 69.721 24.235 66.194 22.746zM60 54.739c.053 0 .107-.008.161-.026C61.554 54.24 63.014 54 64.5 54c.276 0 .5-.224.5-.5S64.776 53 64.5 53c-1.596 0-3.164.257-4.661.765-.262.089-.401.373-.313.634C59.597 54.607 59.792 54.739 60 54.739zM62.771 42.612c.073.038.152.056.229.056.181 0 .356-.099.445-.271.126-.245.03-.547-.215-.674-1.05-.542-2.007-1.241-2.847-2.078-.195-.194-.512-.194-.707.001-.195.196-.194.512.001.707C60.589 41.263 61.63 42.023 62.771 42.612zM57 31.5c0-2.22.633-4.374 1.831-6.229.15-.232.083-.541-.149-.691-.232-.15-.542-.083-.691.149C56.688 26.746 56 29.087 56 31.5c0 1.621.306 3.198.909 4.688.079.195.266.313.463.313.063 0 .126-.012.188-.037.256-.104.379-.395.276-.651C57.281 34.443 57 32.992 57 31.5zM83.941 50.945c-.924.108-1.904.054-2.824-.168-.263-.066-.538.1-.603.369-.065.268.1.539.369.603C81.572 51.916 82.284 52 83 52c.358 0 .711-.021 1.059-.062.274-.032.47-.281.438-.555S84.216 50.909 83.941 50.945zM75.055 43.942c-.032-.274-.274-.468-.555-.438-.274.032-.471.281-.438.555.235 2.001 1.153 3.889 2.585 5.316.098.098.226.146.353.146.128 0 .256-.049.354-.147.195-.196.194-.512-.001-.707C76.08 47.397 75.263 45.72 75.055 43.942z"/></svg>