<svg xmlns="http://www.w3.org/2000/svg" viewBox="0 0 100 100" width="50px" height="50px"><circle cx="77" cy="13" r="1" fill="#f1bc19"/><circle cx="50" cy="50" r="37" fill="#e6edb7"/><circle cx="83" cy="15" r="4" fill="#f1bc19"/><circle cx="87" cy="24" r="2" fill="#9f8066"/><circle cx="81" cy="76" r="2" fill="#fbcd59"/><circle cx="15" cy="64" r="4" fill="#fbcd59"/><circle cx="25" cy="87" r="2" fill="#9f8066"/><circle cx="19.5" cy="38.5" r="2.5" fill="#fff"/><circle cx="79.5" cy="33.5" r="1.5" fill="#fff"/><g><path fill="#f6cca4" d="M36.7,71.36V65c0-3.266-1.651-6.275-5.121-11.393c-1.93-2.847-3.867-9.801-2.131-16.35 c1.371-5.174,4.688-9.087,9.861-11.63c3.56-1.75,7.088-2.638,10.488-2.638c8.741,0,15.23,5.85,17.559,11.285 c2.708,6.318,1.148,8.229,1.132,8.247l-0.36,0.415l0.301,0.468l5.5,7.75c0.21,0.347,0.425,1.259,0.222,1.809 c-0.073,0.199-0.184,0.311-0.369,0.371c-2.044,0.669-3.876,0.971-3.895,0.975L69.3,54.405l0,6.595c0,1.635-0.79,6.3-4.3,6.3h-7.7 v5.934L36.7,71.36z"/><path fill="#472b29" d="M49.798,23.69L49.798,23.69c8.424,0,14.673,5.63,16.915,10.861 c2.242,5.231,1.426,7.174,1.255,7.489l-0.905,0.651l0.794,1.119l5.465,7.701c0.165,0.301,0.261,0.929,0.185,1.177 c-1.964,0.637-3.716,0.927-3.733,0.93L68.6,53.811V55v6c0,1.183-0.611,5.6-3.6,5.6h-7h-1.4V68v4.467l-19.2-1.745V65 c0-3.448-1.69-6.547-5.241-11.786c-1.855-2.736-3.713-9.44-2.034-15.777c1.317-4.969,4.51-8.731,9.493-11.181 C43.08,24.554,46.505,23.69,49.798,23.69 M49.797,22.291C46.52,22.291,42.899,23.083,39,25c-14.854,7.304-11.333,24.083-8,29 c3.53,5.207,5,8,5,11v7l22,2v-6c0,0,3,0,7,0c4,0,5-5,5-7v-6c0,0,1.875-0.305,4-1c1.358-0.444,0.958-2.5,0.5-3.25L69,43 c0,0,2-2-1-9C65.775,28.81,59.199,22.29,49.797,22.291L49.797,22.291z"/></g><g><path fill="#472b29" d="M55.723,27.737c-0.058,0-0.118-0.01-0.175-0.031c-1.56-0.584-3.265-0.874-5.152-0.865 c0,0-0.001,0-0.002,0c-0.275,0-0.499-0.222-0.5-0.497c-0.001-0.276,0.221-0.501,0.498-0.503c1.962,0.029,3.834,0.301,5.508,0.928 c0.259,0.098,0.39,0.386,0.293,0.644C56.116,27.613,55.926,27.737,55.723,27.737z"/></g><g><path fill="#472b29" d="M37.25,31.583c-0.142,0-0.282-0.06-0.381-0.176c-0.179-0.21-0.153-0.525,0.057-0.705 c2.427-2.066,6.189-3.743,10.063-4.485c0.27-0.054,0.533,0.126,0.585,0.397c0.052,0.271-0.126,0.533-0.397,0.585 c-3.657,0.7-7.337,2.334-9.604,4.265C37.48,31.544,37.365,31.583,37.25,31.583z"/></g><g><path fill="#472b29" d="M34.5,52c-0.17,0-0.335-0.087-0.429-0.243c-3.341-5.567-3.139-13.163,0.493-18.47 c0.155-0.228,0.466-0.285,0.695-0.131c0.228,0.156,0.286,0.468,0.13,0.695c-3.811,5.57-3.117,12.965-0.46,17.392 c0.142,0.236,0.065,0.544-0.171,0.686C34.677,51.978,34.588,52,34.5,52z"/></g><g><path fill="#472b29" d="M58.375,67.667c-4.415,0-8.363-1.32-11.118-3.718c-0.208-0.181-0.23-0.497-0.049-0.705 c0.181-0.208,0.497-0.231,0.705-0.049c2.573,2.238,6.288,3.472,10.462,3.472c0.276,0,0.5,0.224,0.5,0.5 S58.651,67.667,58.375,67.667z"/></g><g><path fill="#472b29" d="M46.035,62.435c-0.149,0-0.297-0.066-0.396-0.194c-0.444-0.573-0.831-1.189-1.149-1.83 c-0.123-0.247-0.022-0.547,0.225-0.67c0.246-0.127,0.547-0.022,0.67,0.225c0.29,0.582,0.641,1.142,1.045,1.664 c0.169,0.218,0.129,0.532-0.089,0.701C46.25,62.4,46.142,62.435,46.035,62.435z"/></g></svg>