<svg xmlns="http://www.w3.org/2000/svg" viewBox="0 0 100 100" width="50px" height="50px"><path fill="#ee3e54" d="M13 27A2 2 0 1 0 13 31A2 2 0 1 0 13 27Z"/><path fill="#f1bc19" d="M77 12A1 1 0 1 0 77 14A1 1 0 1 0 77 12Z"/><path fill="#fce0a2" d="M50 13A37 37 0 1 0 50 87A37 37 0 1 0 50 13Z"/><path fill="#f1bc19" d="M83 11A4 4 0 1 0 83 19A4 4 0 1 0 83 11Z"/><path fill="#ee3e54" d="M87 22A2 2 0 1 0 87 26A2 2 0 1 0 87 22Z"/><path fill="#fbcd59" d="M81 74A2 2 0 1 0 81 78 2 2 0 1 0 81 74zM15 59A4 4 0 1 0 15 67 4 4 0 1 0 15 59z"/><path fill="#ee3e54" d="M25 85A2 2 0 1 0 25 89A2 2 0 1 0 25 85Z"/><path fill="#fff" d="M18.5 51A2.5 2.5 0 1 0 18.5 56A2.5 2.5 0 1 0 18.5 51Z"/><path fill="#f1bc19" d="M21 66A1 1 0 1 0 21 68A1 1 0 1 0 21 66Z"/><path fill="#fff" d="M80 33A1 1 0 1 0 80 35A1 1 0 1 0 80 33Z"/><g><path fill="#bebacb" d="M46.421,82.55c-0.774,0-1.421-0.605-1.473-1.378l-1.327-19.898l0.001-3.639h13.22v3.686 l-1.325,19.852c-0.052,0.772-0.698,1.378-1.473,1.378H46.421z"/><path fill="#472b29" d="M56.143,58.334v2.94L54.82,81.125c-0.027,0.406-0.367,0.725-0.774,0.725h-7.624 c-0.407,0-0.747-0.318-0.774-0.725l-1.323-19.851v-2.94H56.143 M57.543,56.935h-14.62v4.386l1.327,19.898 c0.076,1.143,1.026,2.031,2.171,2.031h7.624c1.146,0,2.095-0.888,2.171-2.031l1.327-19.898V56.935L57.543,56.935z"/></g><g><path fill="#67ba8c" d="M38.538,46.701l4.386,2.924v10.234h14.62V49.625l4.386-2.924c0-6.459-5.237-11.696-11.696-11.696 S38.538,40.242,38.538,46.701"/><path fill="#472b29" d="M58.244,60.559H42.224V50l-4.386-2.924v-0.375c0-6.835,5.561-12.396,12.396-12.396 c6.835,0,12.396,5.561,12.396,12.396v0.375L58.244,50V60.559z M43.624,59.158h13.22V49.25l4.38-2.919 c-0.196-5.893-5.051-10.625-10.99-10.625s-10.793,4.732-10.99,10.625l4.38,2.919V59.158z"/></g><g><path fill="#472b29" d="M50.948,41.063c-0.126,0-0.234-0.095-0.248-0.224c-0.015-0.137,0.084-0.26,0.222-0.275 c1.663-0.178,2.726-0.945,3.326-1.559c0.684-0.696,1.155-1.568,1.402-2.591c0.033-0.134,0.17-0.213,0.302-0.185 c0.135,0.032,0.217,0.168,0.185,0.302c-0.27,1.112-0.784,2.062-1.531,2.823c-0.657,0.672-1.819,1.513-3.629,1.707 C50.966,41.063,50.957,41.063,50.948,41.063z"/></g><g><path fill="#472b29" d="M49.364,41.059c-0.01,0-0.019-0.001-0.029-0.002c-0.694-0.079-1.347-0.261-1.939-0.541 c-0.125-0.059-0.178-0.207-0.119-0.332c0.059-0.126,0.208-0.179,0.333-0.119c0.542,0.256,1.142,0.423,1.782,0.496 c0.137,0.016,0.236,0.14,0.22,0.276C49.597,40.965,49.489,41.059,49.364,41.059z"/></g><g><path fill="#472b29" d="M45.917,39.39c-0.066,0-0.133-0.026-0.182-0.079c-0.709-0.755-1.191-1.688-1.433-2.771 c-0.03-0.136,0.055-0.269,0.19-0.299c0.136-0.025,0.269,0.056,0.298,0.189c0.221,0.996,0.662,1.851,1.309,2.539 c0.095,0.101,0.09,0.259-0.011,0.354C46.04,39.367,45.978,39.39,45.917,39.39z"/></g><g><path fill="#fabf82" d="M50.177,37.229c-0.717,0-1.262-0.192-1.619-0.571c-0.591-0.628-0.55-1.601-0.549-1.61l0.001-3.729 h4.448v3.687c0,0.021,0.003,1.012-0.627,1.648C51.452,37.036,50.896,37.229,50.177,37.229z"/><path fill="#472b29" d="M51.758,32.02l0,2.999c-0.003,0.689-0.28,1.511-1.581,1.511c-0.511,0-0.881-0.115-1.101-0.343 c-0.321-0.333-0.374-0.917-0.368-1.097l0.003-0.042v-0.042V32.02H51.758 M53.158,30.62H47.31v4.386c0,0-0.177,2.924,2.867,2.924 c3.044,0,2.981-2.924,2.981-2.924V30.62L53.158,30.62z"/></g><g><path fill="#fabf82" d="M42.924,59.859v1.462l-2.812-1.874c-0.984-0.656-1.574-1.76-1.574-2.942v-9.804l4.386,2.924V59.859z M57.543,49.625v11.696l2.758-1.839c1.017-0.678,1.627-1.819,1.627-3.041v-9.74L57.543,49.625z M50.234,33.543 c4.068,0,7.368-3.336,7.309-7.417c-0.056-3.879-3.322-7.145-7.201-7.201c-4.081-0.059-7.417,3.241-7.417,7.309 C42.924,30.265,46.202,33.543,50.234,33.543"/><path fill="#472b29" d="M56.844,62.628V49.25l5.786-3.856V56.44c0,1.459-0.726,2.813-1.939,3.623L56.844,62.628z M58.244,50 v10.013l1.669-1.113c0.824-0.55,1.316-1.469,1.316-2.459v-8.432L58.244,50z M43.624,62.628l-3.9-2.6 c-1.181-0.786-1.886-2.104-1.886-3.523V45.394l5.786,3.856V62.628z M39.238,48.009v8.496c0,0.95,0.472,1.832,1.262,2.358 l1.723,1.149V50L39.238,48.009z M50.234,34.244c-4.417,0-8.01-3.594-8.01-8.011c0-2.158,0.849-4.184,2.389-5.702 c1.512-1.49,3.504-2.308,5.62-2.308c0.04,0,0.079,0.001,0.119,0.001c4.288,0.062,7.829,3.602,7.892,7.892 c0.03,2.16-0.788,4.198-2.307,5.738C54.418,33.396,52.393,34.244,50.234,34.244z M50.234,19.624c-1.747,0-3.39,0.674-4.638,1.904 c-1.271,1.254-1.972,2.925-1.972,4.705c0,3.646,2.965,6.61,6.61,6.61c1.781,0,3.452-0.7,4.706-1.972 c1.253-1.271,1.929-2.953,1.903-4.736c-0.051-3.479-3.032-6.461-6.512-6.511C50.299,19.624,50.266,19.624,50.234,19.624z"/></g><g><path fill="#472b29" d="M49.902,16c-3.897,0.32-7.643,2.821-7.643,8.149v2.084l1.599,1.462V23.31l10.085-3.215l2.704,3.215 v4.386l1.599-1.462v-1.759c0-3.529-0.219-6.145-4.796-7.013L52.674,16H49.902z"/><path fill="#472b29" d="M55.945,29.284v-5.72l-2.237-2.66l-9.15,2.917v5.463l-2.999-2.742v-2.393 c0-6.029,4.464-8.534,8.286-8.847l0.057-0.003h3.194l0.817,1.542c5.031,1.1,5.031,4.566,5.031,7.633v2.067L55.945,29.284z M54.177,19.285l3.169,3.77v3.052l0.198-0.182v-1.45c0-3.527-0.196-5.561-4.226-6.325l-0.33-0.063L52.254,16.7h-2.323 c-3.376,0.286-6.972,2.392-6.972,7.449v1.775l0.198,0.182v-3.309L54.177,19.285z"/></g><g><path fill="#472b29" d="M50.5,83c-0.276,0-0.5-0.224-0.5-0.5v-9c0-0.276,0.224-0.5,0.5-0.5s0.5,0.224,0.5,0.5v9 C51,82.776,50.776,83,50.5,83z"/></g><g><path fill="#472b29" d="M50.5,71c-0.276,0-0.5-0.224-0.5-0.5v-5c0-0.276,0.224-0.5,0.5-0.5s0.5,0.224,0.5,0.5v5 C51,70.776,50.776,71,50.5,71z"/></g></svg>