<svg xmlns="http://www.w3.org/2000/svg" viewBox="0 0 80 80" width="16px" height="16px"><path fill="#8bb7f0" d="M52.216,42.5c-3.947,0-7.647-1.526-10.419-4.297S37.5,31.731,37.5,27.784s1.526-7.647,4.297-10.418 L52.365,6.797C55.136,4.026,58.836,2.5,62.784,2.5s7.648,1.526,10.419,4.297S77.5,13.269,77.5,17.216 c0,3.947-1.526,7.647-4.297,10.418L62.635,38.203C59.864,40.974,56.164,42.5,52.216,42.5z M62.844,9.556 c-2.063,0-3.992,0.792-5.429,2.23L46.846,22.354c-1.438,1.439-2.23,3.367-2.23,5.43s0.792,3.99,2.23,5.429 c1.439,1.438,3.367,2.23,5.429,2.23c2.063,0,3.991-0.792,5.43-2.23l10.568-10.568c1.438-1.439,2.23-3.367,2.23-5.43 c0-2.062-0.792-3.99-2.23-5.429C66.834,10.348,64.906,9.556,62.844,9.556z"/><path fill="#4e7ab5" d="M62.784,3c3.814,0,7.389,1.474,10.065,4.151C75.526,9.827,77,13.402,77,17.216 c0,3.814-1.474,7.389-4.151,10.065L62.282,37.849C59.605,40.526,56.03,42,52.216,42c-3.814,0-7.389-1.474-10.065-4.151 C39.474,35.173,38,31.598,38,27.784s1.474-7.389,4.151-10.065L52.719,7.151C55.395,4.474,58.97,3,62.784,3 M52.276,35.944 c2.196,0,4.25-0.844,5.783-2.377l10.568-10.568c1.533-1.533,2.377-3.587,2.377-5.783c0-2.196-0.844-4.25-2.377-5.783 C67.094,9.9,65.04,9.056,62.844,9.056c-2.197,0-4.25,0.844-5.783,2.377L46.493,22.001c-1.533,1.533-2.377,3.587-2.377,5.783 c0,2.196,0.844,4.25,2.377,5.783C48.026,35.1,50.079,35.944,52.276,35.944 M62.784,2c-3.905,0-7.81,1.481-10.772,4.444 L41.444,17.011c-5.925,5.925-5.925,15.62,0,21.545C44.406,41.519,48.311,43,52.216,43c3.905,0,7.81-1.481,10.773-4.444 l10.568-10.568c5.925-5.925,5.925-15.62,0-21.545C70.594,3.481,66.689,2,62.784,2L62.784,2z M52.276,34.944 c-1.929,0-3.732-0.74-5.076-2.084c-1.344-1.344-2.084-3.147-2.084-5.076c0-1.929,0.74-3.732,2.084-5.076L57.768,12.14 c1.344-1.344,3.146-2.084,5.076-2.084c1.929,0,3.732,0.74,5.076,2.084c1.344,1.344,2.084,3.146,2.084,5.076 c0,1.929-0.74,3.732-2.084,5.076L57.352,32.86C56.008,34.204,54.205,34.944,52.276,34.944L52.276,34.944z"/><path fill="#8bb7f0" d="M17.216,77.5c-3.947,0-7.647-1.526-10.419-4.297S2.5,66.731,2.5,62.784s1.526-7.647,4.297-10.418 l10.568-10.568c2.771-2.771,6.471-4.297,10.419-4.297s7.648,1.526,10.419,4.297S42.5,48.269,42.5,52.216 c0,3.947-1.526,7.647-4.297,10.418L27.635,73.203C24.864,75.974,21.164,77.5,17.216,77.5z M27.844,44.556 c-2.063,0-3.992,0.792-5.429,2.23L11.846,57.354c-1.438,1.439-2.23,3.367-2.23,5.43s0.792,3.99,2.23,5.429 c1.439,1.438,3.367,2.23,5.429,2.23c2.063,0,3.991-0.792,5.43-2.23l10.568-10.568c1.438-1.439,2.23-3.367,2.23-5.43 c0-2.062-0.792-3.99-2.23-5.429C31.834,45.348,29.906,44.556,27.844,44.556z"/><path fill="#4e7ab5" d="M27.784,38c3.814,0,7.389,1.474,10.065,4.151C40.526,44.827,42,48.402,42,52.216 c0,3.814-1.474,7.389-4.151,10.065L27.282,72.849C24.605,75.526,21.03,77,17.216,77c-3.814,0-7.389-1.474-10.065-4.151 C4.474,70.173,3,66.598,3,62.784s1.474-7.389,4.151-10.065l10.568-10.568C20.395,39.474,23.97,38,27.784,38 M17.276,70.944 c2.196,0,4.25-0.844,5.783-2.377l10.568-10.568c1.533-1.533,2.377-3.587,2.377-5.783c0-2.196-0.844-4.25-2.377-5.783 c-1.533-1.533-3.587-2.377-5.783-2.377c-2.197,0-4.25,0.844-5.783,2.377L11.493,57.001c-1.533,1.533-2.377,3.587-2.377,5.783 c0,2.196,0.844,4.25,2.377,5.783C13.026,70.1,15.079,70.944,17.276,70.944 M27.784,37c-3.905,0-7.81,1.481-10.772,4.444 L6.444,52.011c-5.925,5.925-5.925,15.62,0,21.545C9.406,76.519,13.311,78,17.216,78c3.905,0,7.81-1.481,10.773-4.444l10.568-10.568 c5.925-5.925,5.925-15.62,0-21.545C35.594,38.481,31.689,37,27.784,37L27.784,37z M17.276,69.944c-1.929,0-3.732-0.74-5.076-2.084 c-1.344-1.344-2.084-3.147-2.084-5.076c0-1.929,0.74-3.732,2.084-5.076L22.768,47.14c1.344-1.344,3.146-2.084,5.076-2.084 c1.929,0,3.732,0.74,5.076,2.084c1.344,1.344,2.084,3.146,2.084,5.076c0,1.929-0.74,3.732-2.084,5.076L22.352,67.86 C21.008,69.204,19.205,69.944,17.276,69.944L17.276,69.944z"/><g><path fill="#8bb7f0" d="M29.801,53.5c-1.14,0-2.196-0.586-2.826-1.567c-0.822-1.281-0.56-3.07,0.624-4.254l20.084-20.084 c0.696-0.696,1.646-1.095,2.604-1.095c0.674,0,1.308,0.201,1.833,0.581c0.814,0.589,1.305,1.457,1.383,2.442 c0.077,0.973-0.274,1.925-0.963,2.614l-20.39,20.39C31.522,53.154,30.688,53.5,29.801,53.5z"/><path fill="#4e7ab5" d="M50.288,27L50.288,27c0.568,0,1.1,0.168,1.539,0.485c0.693,0.502,1.111,1.24,1.178,2.077 c0.065,0.826-0.233,1.636-0.818,2.221l-20.39,20.39C31.264,52.706,30.555,53,29.801,53c-0.983,0-1.86-0.487-2.405-1.337 c-0.696-1.085-0.462-2.611,0.557-3.63l20.084-20.084C48.64,27.346,49.461,27,50.288,27 M50.288,26c-1.074,0-2.16,0.444-2.958,1.242 L27.246,47.326c-1.29,1.29-1.677,3.341-0.692,4.877C27.323,53.401,28.562,54,29.801,54c0.978,0,1.956-0.373,2.703-1.12l20.39-20.39 c1.639-1.638,1.479-4.396-0.48-5.815C51.778,26.215,51.036,26,50.288,26L50.288,26z"/></g></svg>