<svg xmlns="http://www.w3.org/2000/svg" viewBox="0 0 100 100" width="50px" height="50px"><path fill="#f1bc19" d="M77 12A1 1 0 1 0 77 14A1 1 0 1 0 77 12Z"/><path fill="#e6edb7" d="M50 13A37 37 0 1 0 50 87A37 37 0 1 0 50 13Z"/><path fill="#f1bc19" d="M83 11A4 4 0 1 0 83 19A4 4 0 1 0 83 11Z"/><path fill="#88ae45" d="M87 22A2 2 0 1 0 87 26A2 2 0 1 0 87 22Z"/><path fill="#fbcd59" d="M81 74A2 2 0 1 0 81 78 2 2 0 1 0 81 74zM15 59A4 4 0 1 0 15 67 4 4 0 1 0 15 59z"/><path fill="#88ae45" d="M25 85A2 2 0 1 0 25 89A2 2 0 1 0 25 85Z"/><path fill="#fff" d="M18.5 49A2.5 2.5 0 1 0 18.5 54 2.5 2.5 0 1 0 18.5 49zM79.5 32A1.5 1.5 0 1 0 79.5 35 1.5 1.5 0 1 0 79.5 32z"/><path fill="#e1e0d8" d="M71.75,55.5h-2.5c-0.414,0-0.75-0.336-0.75-0.75v-3.5c0-0.414,0.336-0.75,0.75-0.75h2.5 c0.414,0,0.75,0.336,0.75,0.75v3.5C72.5,55.164,72.164,55.5,71.75,55.5z"/><path fill="#472b29" d="M71.75,55.75h-2.5c-0.552,0-1-0.448-1-1v-3.5c0-0.552,0.448-1,1-1h2.5c0.552,0,1,0.448,1,1v3.5 C72.75,55.302,72.302,55.75,71.75,55.75z M69.25,50.75c-0.275,0-0.5,0.225-0.5,0.5v3.5c0,0.275,0.225,0.5,0.5,0.5h2.5 c0.275,0,0.5-0.225,0.5-0.5v-3.5c0-0.275-0.225-0.5-0.5-0.5H69.25z"/><path fill="#e1e0d8" d="M62.75,40.5h-2.5c-0.414,0-0.75-0.336-0.75-0.75v-4.5c0-0.414,0.336-0.75,0.75-0.75h2.5 c0.414,0,0.75,0.336,0.75,0.75v4.5C63.5,40.164,63.164,40.5,62.75,40.5z"/><path fill="#472b29" d="M62.75,40.75h-2.5c-0.552,0-1-0.448-1-1v-4.5c0-0.552,0.448-1,1-1h2.5c0.552,0,1,0.448,1,1v4.5 C63.75,40.302,63.302,40.75,62.75,40.75z M60.25,34.75c-0.275,0-0.5,0.225-0.5,0.5v4.5c0,0.275,0.225,0.5,0.5,0.5h2.5 c0.275,0,0.5-0.225,0.5-0.5v-4.5c0-0.275-0.225-0.5-0.5-0.5H60.25z"/><path fill="#e1e0d8" d="M33.119,71.3c-1.886,0-3.419-1.533-3.419-3.419V30.119c0-1.886,1.533-3.419,3.419-3.419h25.762 c1.886,0,3.419,1.533,3.419,3.419v37.762c0,1.886-1.533,3.419-3.419,3.419H33.119z"/><path fill="#472b29" d="M58.881,27.4c1.499,0,2.719,1.22,2.719,2.719v37.763c0,1.499-1.22,2.719-2.719,2.719H33.119 c-1.499,0-2.719-1.22-2.719-2.719V30.119c0-1.499,1.22-2.719,2.719-2.719H58.881 M58.881,26H33.119C30.844,26,29,27.844,29,30.119 v37.763C29,70.156,30.844,72,33.119,72h25.762C61.156,72,63,70.156,63,67.881V30.119C63,27.844,61.156,26,58.881,26L58.881,26z"/><g><path fill="#c5def0" d="M33.5 31.5H58.5V64.5H33.5z"/></g><g><path fill="#472b29" d="M58.5,65h-25c-0.276,0-0.5-0.224-0.5-0.5v-4.25c0-0.276,0.224-0.5,0.5-0.5s0.5,0.224,0.5,0.5V64h24 V32H34v19.958c0,0.276-0.224,0.5-0.5,0.5s-0.5-0.224-0.5-0.5V31.5c0-0.276,0.224-0.5,0.5-0.5h25c0.276,0,0.5,0.224,0.5,0.5v33 C59,64.776,58.776,65,58.5,65z"/></g><g><path fill="#472b29" d="M33.5,58.458c-0.276,0-0.5-0.224-0.5-0.5v-3.5c0-0.276,0.224-0.5,0.5-0.5s0.5,0.224,0.5,0.5v3.5 C34,58.234,33.776,58.458,33.5,58.458z"/></g><g><path fill="#fefdef" d="M55.608,74.3c-1.053,0-1.908-0.855-1.908-1.908V44.608c0-1.053,0.855-1.908,1.908-1.908h13.783 c1.053,0,1.908,0.855,1.908,1.908v27.783c0,1.053-0.855,1.908-1.908,1.908H55.608z"/><path fill="#472b29" d="M69.392,43.4c0.666,0,1.208,0.542,1.208,1.208v27.784c0,0.666-0.542,1.208-1.208,1.208H55.608 c-0.666,0-1.208-0.542-1.208-1.208V44.608c0-0.666,0.542-1.208,1.208-1.208H69.392 M69.392,42H55.608 C54.168,42,53,43.167,53,44.608v27.784C53,73.833,54.168,75,55.608,75h13.784C70.832,75,72,73.833,72,72.392V44.608 C72,43.167,70.832,42,69.392,42L69.392,42z"/></g><g><path fill="#c5def0" d="M56.5 47.5H68.5V69.5H56.5z"/></g><g><path fill="#472b29" d="M64.5,46h-4c-0.276,0-0.5-0.224-0.5-0.5s0.224-0.5,0.5-0.5h4c0.276,0,0.5,0.224,0.5,0.5 S64.776,46,64.5,46z"/></g><g><path fill="#472b29" d="M48,30h-4c-0.276,0-0.5-0.224-0.5-0.5S43.724,29,44,29h4c0.276,0,0.5,0.224,0.5,0.5S48.276,30,48,30 z"/></g><g><path fill="#472b29" d="M68.5,70h-12c-0.276,0-0.5-0.224-0.5-0.5V58.292c0-0.276,0.224-0.5,0.5-0.5s0.5,0.224,0.5,0.5V69h11 v-1.906c0-0.276,0.224-0.5,0.5-0.5s0.5,0.224,0.5,0.5V69.5C69,69.776,68.776,70,68.5,70z"/></g><g><path fill="#472b29" d="M68.5,65.156c-0.276,0-0.5-0.224-0.5-0.5V48H57v2.5c0,0.276-0.224,0.5-0.5,0.5S56,50.776,56,50.5v-3 c0-0.276,0.224-0.5,0.5-0.5h12c0.276,0,0.5,0.224,0.5,0.5v17.156C69,64.933,68.776,65.156,68.5,65.156z"/></g><g><path fill="#472b29" d="M56.5,56.375c-0.276,0-0.5-0.224-0.5-0.5v-3.167c0-0.276,0.224-0.5,0.5-0.5s0.5,0.224,0.5,0.5v3.167 C57,56.151,56.776,56.375,56.5,56.375z"/></g><g><path fill="#e1e0d8" d="M46 66.5A1.5 1.5 0 1 0 46 69.5A1.5 1.5 0 1 0 46 66.5Z"/><path fill="#472b29" d="M46,69.75c-0.965,0-1.75-0.785-1.75-1.75s0.785-1.75,1.75-1.75s1.75,0.785,1.75,1.75 S46.965,69.75,46,69.75z M46,66.75c-0.689,0-1.25,0.561-1.25,1.25s0.561,1.25,1.25,1.25s1.25-0.561,1.25-1.25 S46.689,66.75,46,66.75z"/></g></svg>