<svg xmlns="http://www.w3.org/2000/svg" viewBox="0 0 48 48" width="48px" height="48px"><path fill="#90caf9" d="M9,35V20.583C9,18.052,11.052,16,13.583,16H45v26H16C16,42,9,42,9,35z"/><path fill="#42a5f5" d="M6,32V17.583C6,15.052,8.052,13,10.583,13H42v26H13C13,39,6,39,6,32z"/><path fill="#90caf9" d="M39,10v26H10c0,0-4.01,0-5.96-3.03C3.42,31.99,3,30.71,3,29V14.58C3,12.05,5.05,10,7.58,10H39z"/><path fill="#42a5f5" d="M13,10v20H8c0,0-2.78,0.01-3.96,2.97C3.42,31.99,3,30.71,3,29V12.44C3,11.09,4.09,10,5.44,10H13z"/><path fill="#1976d2" d="M19.434 25.549L18.02 24.135 23.952 18.203 27.167 21.419 31.293 17.293 32.707 18.707 27.167 24.247 23.952 21.031z"/><path fill="#1976d2" d="M29.177 16L34 20.823 34 16zM18 28H34V30H18z"/><path fill="#bbdefb" d="M10,4c0,0-7,0-7,7c0,5.007,0,18,0,18c0.64-5.988,7-6,7-6h1V4H10z"/></svg>