<svg xmlns="http://www.w3.org/2000/svg" viewBox="0 0 64 64" width="64px" height="64px"><path fill="#ced8ed" d="M57 21L7 21 13 7 51 7 57 21z"/><rect width="50" height="12" x="7" y="21" fill="#c2cde7" rx="2" ry="2"/><path fill="#b5c4e0" d="M11,27H53a4,4,0,0,1,4,4v0a2,2,0,0,1-2,2H9a2,2,0,0,1-2-2v0a4,4,0,0,1,4-4Z"/><rect width="50" height="12" x="7" y="33" fill="#c2cde7" rx="2" ry="2"/><path fill="#b5c4e0" d="M11,39H53a4,4,0,0,1,4,4v0a2,2,0,0,1-2,2H9a2,2,0,0,1-2-2v0a4,4,0,0,1,4-4Z"/><rect width="50" height="12" x="7" y="45" fill="#c2cde7" rx="2" ry="2"/><path fill="#b5c4e0" d="M11,51H53a4,4,0,0,1,4,4v0a2,2,0,0,1-2,2H9a2,2,0,0,1-2-2v0a4,4,0,0,1,4-4Z"/><path fill="#ed7899" d="M49 25A2 2 0 1 0 49 29 2 2 0 1 0 49 25zM49 37A2 2 0 1 0 49 41 2 2 0 1 0 49 37zM49 49A2 2 0 1 0 49 53 2 2 0 1 0 49 49z"/><path fill="#dae2ef" d="M52 11L51.04 7 12.96 7 12 11 52 11z"/><path fill="#8d6c9f" d="M58,30V19.94a5,5,0,0,0-.53-2.24l-4.75-9.5A4,4,0,0,0,49.15,6H14.85a4,4,0,0,0-3.58,2.21l-4.75,9.5A5,5,0,0,0,6,19.94V30a4,4,0,0,0,1.38,3A4,4,0,0,0,6,36v6a4,4,0,0,0,1.38,3A4,4,0,0,0,6,48v6a4,4,0,0,0,4,4H54a4,4,0,0,0,4-4V48a4,4,0,0,0-1.38-3A4,4,0,0,0,58,42V36a4,4,0,0,0-1.38-3A4,4,0,0,0,58,30ZM8.32,18.6l4.75-9.5A2,2,0,0,1,14.85,8H49.15a2,2,0,0,1,1.79,1.11l4.75,9.5A3,3,0,0,1,56,19.94V20H8v-.06A3,3,0,0,1,8.32,18.6ZM56,48v6a2,2,0,0,1-2,2H10a2,2,0,0,1-2-2V48a2,2,0,0,1,2-2H54A2,2,0,0,1,56,48Zm0-12v6a2,2,0,0,1-2,2H10a2,2,0,0,1-2-2V36a2,2,0,0,1,2-2H54A2,2,0,0,1,56,36ZM10,32a2,2,0,0,1-2-2V22H56v8a2,2,0,0,1-2,2Z"/><path fill="#8d6c9f" d="M33 53a1 1 0 0 0 1-1V50a1 1 0 0 0-2 0v2A1 1 0 0 0 33 53zM28 53a1 1 0 0 0 1-1V50a1 1 0 0 0-2 0v2A1 1 0 0 0 28 53zM23 53a1 1 0 0 0 1-1V50a1 1 0 0 0-2 0v2A1 1 0 0 0 23 53zM18 53a1 1 0 0 0 1-1V50a1 1 0 0 0-2 0v2A1 1 0 0 0 18 53zM13 53a1 1 0 0 0 1-1V50a1 1 0 0 0-2 0v2A1 1 0 0 0 13 53zM49 54a3 3 0 1 0-3-3A3 3 0 0 0 49 54zm0-4.25A1.25 1.25 0 1 1 47.75 51 1.25 1.25 0 0 1 49 49.75zM37 52h6a1 1 0 0 0 0-2H37a1 1 0 0 0 0 2zM33 41a1 1 0 0 0 1-1V38a1 1 0 0 0-2 0v2A1 1 0 0 0 33 41zM28 41a1 1 0 0 0 1-1V38a1 1 0 0 0-2 0v2A1 1 0 0 0 28 41zM23 41a1 1 0 0 0 1-1V38a1 1 0 0 0-2 0v2A1 1 0 0 0 23 41zM18 41a1 1 0 0 0 1-1V38a1 1 0 0 0-2 0v2A1 1 0 0 0 18 41zM13 41a1 1 0 0 0 1-1V38a1 1 0 0 0-2 0v2A1 1 0 0 0 13 41zM49 42a3 3 0 1 0-3-3A3 3 0 0 0 49 42zm0-4.21A1.21 1.21 0 1 1 47.79 39 1.21 1.21 0 0 1 49 37.79zM37 40h6a1 1 0 0 0 0-2H37a1 1 0 0 0 0 2zM33 25a1 1 0 0 0-1 1v2a1 1 0 0 0 2 0V26A1 1 0 0 0 33 25zM28 25a1 1 0 0 0-1 1v2a1 1 0 0 0 2 0V26A1 1 0 0 0 28 25zM23 25a1 1 0 0 0-1 1v2a1 1 0 0 0 2 0V26A1 1 0 0 0 23 25zM18 25a1 1 0 0 0-1 1v2a1 1 0 0 0 2 0V26A1 1 0 0 0 18 25zM13 25a1 1 0 0 0-1 1v2a1 1 0 0 0 2 0V26A1 1 0 0 0 13 25zM49 24a3 3 0 1 0 3 3A3 3 0 0 0 49 24zm0 4.21A1.21 1.21 0 1 1 50.21 27 1.21 1.21 0 0 1 49 28.21zM43 26H37a1 1 0 0 0 0 2h6a1 1 0 0 0 0-2zM15 12H41a1 1 0 0 0 0-2H15a1 1 0 0 0 0 2zM45 12h4a1 1 0 0 0 0-2H45a1 1 0 0 0 0 2z"/></svg>