<svg xmlns="http://www.w3.org/2000/svg" viewBox="0 0 80 80" width="16px" height="16px"><path fill="#8bb7f0" d="M40,70.5c-1.554,0-3.045-0.668-4.091-1.834L35.761,68.5H2.667c-1.195,0-2.167-0.972-2.167-2.167 V15.667c0-1.195,0.972-2.167,2.167-2.167h74.666c1.195,0,2.167,0.972,2.167,2.167v50.666c0,1.195-0.972,2.167-2.167,2.167H44.239 l-0.148,0.166C43.045,69.832,41.554,70.5,40,70.5z"/><path fill="#4e7ab5" d="M77.333,14C78.252,14,79,14.748,79,15.667v50.667C79,67.252,78.252,68,77.333,68h-32.87h-0.446 l-0.298,0.332C42.768,69.392,41.413,70,40,70s-2.768-0.608-3.719-1.668L35.983,68h-0.446H2.667C1.748,68,1,67.252,1,66.333V15.667 C1,14.748,1.748,14,2.667,14H77.333 M77.333,13H2.667C1.194,13,0,14.194,0,15.667v50.667C0,67.806,1.194,69,2.667,69h32.87 c1.099,1.225,2.688,2,4.463,2s3.365-0.775,4.463-2h32.87C78.806,69,80,67.806,80,66.333V15.667C80,14.194,78.806,13,77.333,13 L77.333,13z"/><path fill="#fff" d="M38.473,66.5c-0.25-2.247-2.16-4-4.473-4H4.5v-55h30.167c2.681,0,4.938,2.476,4.961,2.501L40,10.414 l0.372-0.413c0.022-0.025,2.28-2.501,4.961-2.501H75.5v55H46c-2.313,0-4.223,1.753-4.473,4H38.473z"/><path fill="#788b9c" d="M75,8v54H46c-2.415,0-4.435,1.721-4.9,4H38.9c-0.465-2.279-2.485-4-4.9-4H5V8h29.667 c2.451,0,4.569,2.312,4.588,2.334L40,11.166l0.745-0.832C40.766,10.31,42.903,8,45.333,8H75 M76,7H45.333 C42.388,7,40,9.667,40,9.667S37.612,7,34.667,7H4v56h30c2.209,0,4,1.791,4,4h4c0-2.209,1.791-4,4-4h30V7L76,7z"/><path fill="#e1ebf2" d="M45.333,8c-2.431,0-4.567,2.31-4.588,2.334L40,11.166V66h1.1c0.465-2.279,2.485-4,4.9-4h29V8H45.333z"/><path fill="#66798f" d="M12 33H24V34H12zM12 17H24V18H12zM12 25H24V26H12zM12 41H24V42H12zM12 49H24V50H12zM32 33H34V34H32zM32 17H34V18H32zM32 25H34V26H32zM32 41H34V42H32zM28 17H30V18H28zM28 25H30V26H28zM28 41H30V42H28zM32 49H34V50H32zM46 33H58V34H46zM46 17H58V18H46zM46 25H58V26H46zM66 33H68V34H66zM66 17H68V18H66zM66 25H68V26H66zM62 17H64V18H62zM62 25H64V26H62z"/></svg>